<?xml version="1.0" standalone="no"?>
<!DOCTYPE svg PUBLIC "-//W3C//DTD SVG 20010904//EN"
 "http://www.w3.org/TR/2001/REC-SVG-20010904/DTD/svg10.dtd">
<svg version="1.0" xmlns="http://www.w3.org/2000/svg"
 width="192.000000pt" height="192.000000pt" viewBox="0 0 192.000000 192.000000"
 preserveAspectRatio="xMidYMid meet">
<metadata>
Created by potrace 1.11, written by Peter Selinger 2001-2013
</metadata>
<g transform="translate(0.000000,192.000000) scale(0.100000,-0.100000)"
fill="#000000" stroke="none">
<path d="M335 1664 c-46 -24 -74 -54 -86 -93 -6 -24 -9 -242 -7 -633 3 -585 3
-597 24 -624 11 -15 33 -37 48 -48 27 -21 39 -21 632 -24 671 -3 648 -5 700
64 l29 37 0 616 0 616 -23 33 c-13 18 -41 41 -62 52 -37 19 -62 20 -632 20
-516 0 -597 -2 -623 -16z m545 -294 l0 -150 -100 0 -100 0 0 -30 0 -30 100 0
100 0 0 -60 0 -60 -160 0 -160 0 0 150 0 150 100 0 100 0 0 30 0 30 -100 0
-100 0 0 60 0 60 160 0 160 0 0 -150z m202 34 l3 -117 78 117 77 116 65 0 c36
0 65 -2 65 -5 0 -3 -32 -53 -70 -111 -39 -57 -73 -110 -76 -117 -2 -8 29 -64
71 -126 41 -62 75 -114 75 -117 0 -2 -29 -4 -65 -4 l-65 0 -77 116 -78 117 -3
-117 -3 -116 -59 0 -60 0 0 240 0 240 60 0 59 0 3 -116z m438 -424 l0 -101
-240 -240 -239 -239 -156 155 c-85 85 -159 155 -165 155 -5 0 -79 -70 -165
-156 l-155 -156 0 101 0 101 160 159 161 160 160 -160 160 -160 237 240 c130
131 238 239 240 240 1 1 2 -44 2 -99z"/>
</g>
</svg>
